<svg xmlns="http://www.w3.org/2000/svg" viewBox="0 0 1080 1080">
  <path d="M 517,0 L 424,12 L 325,44 L 226,100 L 144,172 L 80,256 L 34,350 L 5,463 L 0,562 L 12,655 L 50,767 L 100,853 L 173,936 L 256,999 L 355,1047 L 457,1073 L 563,1079 L 655,1067 L 767,1029 L 856,977 L 936,906 L 1002,818 L 1047,724 L 1074,616 L 1079,516 L 1067,424 L 1029,312 L 979,226 L 907,144 L 818,77 L 724,32 L 616,5 Z" fill="#bee1f5" />
  <path d="M 501,226 L 498,225 L 464,225 L 460,226 L 457,229 L 457,233 L 459,235 L 464,236 L 468,240 L 468,244 L 464,247 L 454,247 L 442,250 L 440,252 L 435,253 L 427,261 L 420,277 L 420,285 L 422,290 L 431,299 L 436,301 L 450,301 L 456,306 L 456,309 L 452,314 L 442,315 L 438,319 L 439,324 L 441,325 L 478,325 L 484,320 L 483,316 L 472,314 L 470,312 L 470,305 L 476,300 L 490,301 L 497,299 L 505,295 L 514,286 L 520,274 L 520,263 L 517,258 L 511,252 L 504,248 L 489,247 L 484,244 L 484,239 L 486,237 L 492,235 L 498,235 L 502,231 Z" fill="#0b91f1" />
  <path d="M 817,224 L 814,227 L 810,240 L 808,253 L 809,266 L 817,266 L 819,264 L 823,244 L 829,239 L 846,239 L 848,241 L 848,250 L 842,271 L 835,307 L 830,311 L 811,314 L 809,316 L 809,323 L 815,325 L 864,325 L 869,323 L 869,313 L 853,312 L 849,308 L 850,298 L 863,243 L 868,239 L 884,240 L 886,242 L 886,251 L 882,262 L 883,265 L 891,265 L 896,259 L 905,230 L 905,225 Z" fill="#0b91f1" />
  <path d="M 558,226 L 555,229 L 555,234 L 567,240 L 568,249 L 565,255 L 556,304 L 550,312 L 538,316 L 538,323 L 554,325 L 628,324 L 635,304 L 635,292 L 633,290 L 628,290 L 624,294 L 619,307 L 612,312 L 573,311 L 569,304 L 570,296 L 574,285 L 578,282 L 588,283 L 597,295 L 602,294 L 607,287 L 613,258 L 609,254 L 605,254 L 595,266 L 581,267 L 578,264 L 578,258 L 582,245 L 586,240 L 625,239 L 629,242 L 627,256 L 634,259 L 638,257 L 643,244 L 647,225 L 573,224 Z" fill="#0b91f1" />
  <path d="M 245,224 L 163,224 L 154,238 L 154,248 L 167,251 L 169,253 L 169,259 L 144,374 L 139,379 L 132,382 L 125,392 L 125,401 L 131,406 L 162,407 L 168,405 L 176,395 L 176,380 L 158,379 L 156,377 L 156,366 L 180,255 L 187,250 L 224,250 L 227,253 L 219,298 L 224,300 L 229,296 Z" fill="#0b91f1" />
  <path d="M 775,226 L 756,226 L 743,221 L 734,220 L 712,226 L 700,233 L 688,245 L 680,260 L 675,277 L 674,298 L 682,314 L 692,322 L 708,328 L 732,327 L 756,315 L 763,308 L 763,303 L 758,301 L 754,302 L 746,308 L 730,314 L 713,315 L 707,314 L 697,309 L 689,299 L 688,295 L 689,272 L 696,255 L 705,245 L 713,240 L 726,236 L 738,236 L 750,240 L 755,245 L 759,257 L 762,259 L 766,258 L 770,254 L 777,228 Z" fill="#0b91f1" />
  <path d="M 354,220 L 289,220 L 282,226 L 276,243 L 289,251 L 289,257 L 277,303 L 266,366 L 262,376 L 248,389 L 247,402 L 251,406 L 317,407 L 322,405 L 334,341 L 325,344 L 320,365 L 313,378 L 279,379 L 275,376 L 275,366 L 281,335 L 287,327 L 297,326 L 301,329 L 298,342 L 300,350 L 307,346 L 313,330 L 314,314 L 321,291 L 320,276 L 311,282 L 309,291 L 303,299 L 295,300 L 290,296 L 299,252 L 303,249 L 335,250 L 337,259 L 334,284 L 341,283 L 347,268 L 355,228 Z" fill="#0b91f1" />
  <path d="M 853,506 L 847,505 L 815,512 L 783,528 L 749,554 L 720,586 L 693,625 L 673,662 L 617,801 L 617,809 L 623,806 L 650,751 L 677,706 L 704,671 L 736,639 L 759,621 L 801,601 L 843,589 L 878,585 Z" fill="#f34509" />
  <path d="M 327,506 L 302,582 L 303,586 L 327,587 L 384,603 L 417,619 L 445,639 L 476,670 L 507,711 L 528,746 L 556,804 L 564,807 L 561,793 L 507,662 L 491,632 L 465,593 L 428,552 L 402,532 L 366,513 Z" fill="#f34509" />
  <path d="M 535,504 L 533,505 L 548,543 L 559,579 L 577,655 L 582,695 L 587,804 L 589,808 L 595,808 L 596,718 L 604,652 L 625,568 L 637,532 L 649,505 Z" fill="#f34509" />
  <path d="M 447,867 L 447,959 L 750,959 L 749,866 Z" fill="#262321" />
  <path d="M 293,617 L 276,604 L 259,587 L 252,577 L 243,550 L 242,529 L 247,514 L 264,496 L 286,483 L 314,474 L 314,469 L 101,470 L 102,492 L 106,507 L 116,530 L 137,557 L 167,584 L 204,604 L 236,614 L 262,619 L 290,621 Z" fill="#262321" />
  <path d="M 429,377 L 429,464 L 435,470 L 889,469 L 888,375 Z" fill="#262321" />
</svg>